<?xml version="1.0" encoding="UTF-8"?>
<svg id="Figuras" xmlns="http://www.w3.org/2000/svg" xmlns:xlink="http://www.w3.org/1999/xlink" viewBox="0 0 260 285">
  <defs>
    <style>
      .cls-1 {
        fill: #fff;
      }

      .cls-2 {
        filter: url(#outer-glow-1);
      }

      .cls-3 {
        fill: #07d9c4;
      }
    </style>
    <filter id="outer-glow-1" x="17" y="-2.72" width="226" height="291" filterUnits="userSpaceOnUse">
      <feOffset dx="0" dy="0"/>
      <feGaussianBlur result="blur" stdDeviation="8"/>
      <feFlood flood-color="#07d9c4" flood-opacity=".75"/>
      <feComposite in2="blur" operator="in"/>
      <feComposite in="SourceGraphic"/>
    </filter>
  </defs>
  <path class="cls-1" d="M255,177.93c0,19.15-1.28,31.41-4.33,53.3l-.07.59-17.25,11.36,1.97-14.06c2.94-21.16,4.16-32.97,4.16-51.19,0-57.74-41.11-106.47-95.66-113.29-4.26-.55-8.66-.83-13.06-.83h-1.39c-4.85,0-9.59.31-14.17.97-54,7.27-94.69,55.94-94.69,113.15,0,18.22,1.25,29.99,4.19,51.19l1.94,14.06-17.25-11.36-.07-.59c-3.05-21.92-4.33-34.15-4.33-53.3,0-64.94,46.48-120.22,108.13-128.53,5.26-.73,10.7-1.11,16.11-1.11.28,0,.55,0,.83.03.14-.03.42-.03.69-.03,5.06,0,10.08.35,15,.97,62.28,7.79,109.24,63.11,109.24,128.67Z"/>
  <path class="cls-1" d="M210.59,155.12c-.52,17.56-14.93,31.62-32.63,31.62-6.34,0-12.26-1.8-17.28-4.95.55-17.56,15-31.59,32.66-31.59,6.34,0,12.26,1.8,17.25,4.92Z"/>
  <path class="cls-1" d="M51.05,155.07c.52,17.56,14.93,31.62,32.63,31.62,6.34,0,12.26-1.8,17.28-4.95-.55-17.56-15-31.59-32.66-31.59-6.34,0-12.26,1.8-17.25,4.92Z"/>
  <g class="cls-2">
    <polygon class="cls-3" points="218.48 21.56 131.27 263.44 41.52 21.56 60.86 21.56 131.03 211.85 199.21 21.56 218.48 21.56"/>
  </g>
</svg>