<?xml version="1.0" encoding="UTF-8"?>
<svg id="Figuras" xmlns="http://www.w3.org/2000/svg" xmlns:xlink="http://www.w3.org/1999/xlink" viewBox="0 0 360 120">
  <defs>
    <style>
      .cls-1 {
        fill: #fff;
      }

      .cls-2 {
        filter: url(#outer-glow-1);
      }

      .cls-3 {
        fill: #07d9c4;
      }
    </style>
    <filter id="outer-glow-1" x="3.67" y="-2.22" width="98" height="124" filterUnits="userSpaceOnUse">
      <feOffset dx="0" dy="0"/>
      <feGaussianBlur result="blur" stdDeviation="5"/>
      <feFlood flood-color="#07d9c4" flood-opacity=".75"/>
      <feComposite in2="blur" operator="in"/>
      <feComposite in="SourceGraphic"/>
    </filter>
  </defs>
  <g>
    <path class="cls-1" d="M160.87,89.11l-20.06-58.23h6.19l17.75,51.47,17.87-51.47h6.19l-20.06,58.23h-7.88Z"/>
    <path class="cls-1" d="M203.73,90.33c-3.29,0-6.05-.59-8.27-1.78-2.22-1.19-3.89-2.76-4.99-4.73-1.11-1.97-1.66-4.11-1.66-6.43s.48-4.4,1.44-6.09c.96-1.68,2.26-3.07,3.92-4.14,1.66-1.08,3.58-1.9,5.76-2.47,2.21-.54,4.66-1.02,7.34-1.44,2.68-.42,5.31-.78,7.88-1.09,2.57-.31,4.83-.61,6.77-.91l-2.1,1.29c.08-4.31-.76-7.51-2.51-9.58-1.75-2.08-4.8-3.11-9.14-3.11-2.99,0-5.52.67-7.58,2.02-2.06,1.35-3.51,3.48-4.35,6.39l-5.78-1.7c1-3.91,3.01-6.94,6.02-9.1,3.02-2.16,6.94-3.23,11.77-3.23,3.99,0,7.38.75,10.17,2.24,2.79,1.5,4.76,3.66,5.92,6.49.54,1.27.89,2.68,1.05,4.25.16,1.56.24,3.15.24,4.77v27.13h-5.3v-10.96l1.54.65c-1.48,3.75-3.79,6.6-6.91,8.57-3.13,1.97-6.87,2.95-11.24,2.95ZM204.42,85.19c2.78,0,5.2-.5,7.28-1.5,2.08-1,3.75-2.37,5.01-4.1,1.27-1.74,2.09-3.7,2.47-5.88.32-1.4.5-2.94.53-4.63.03-1.68.04-2.94.04-3.78l2.26,1.17c-2.02.27-4.21.54-6.57.81-2.36.27-4.68.58-6.95.93-2.28.35-4.33.77-6.17,1.25-1.24.35-2.44.84-3.6,1.48-1.16.63-2.11,1.48-2.85,2.53-.74,1.05-1.11,2.36-1.11,3.92,0,1.27.32,2.49.95,3.68.63,1.19,1.66,2.17,3.07,2.95,1.42.78,3.3,1.17,5.64,1.17Z"/>
    <path class="cls-1" d="M236.97,89.11V29.67h5.94v59.44h-5.94Z"/>
    <path class="cls-1" d="M255.85,89.11V29.67h5.94v59.44h-5.94Z"/>
    <path class="cls-1" d="M286.42,90.33c-3.29,0-6.05-.59-8.27-1.78-2.22-1.19-3.89-2.76-4.99-4.73-1.11-1.97-1.66-4.11-1.66-6.43s.48-4.4,1.44-6.09c.96-1.68,2.26-3.07,3.92-4.14,1.66-1.08,3.58-1.9,5.76-2.47,2.21-.54,4.66-1.02,7.34-1.44,2.68-.42,5.31-.78,7.88-1.09,2.57-.31,4.83-.61,6.77-.91l-2.1,1.29c.08-4.31-.76-7.51-2.51-9.58-1.75-2.08-4.8-3.11-9.14-3.11-2.99,0-5.52.67-7.58,2.02-2.06,1.35-3.51,3.48-4.35,6.39l-5.78-1.7c1-3.91,3.01-6.94,6.02-9.1,3.02-2.16,6.94-3.23,11.77-3.23,3.99,0,7.38.75,10.17,2.24,2.79,1.5,4.76,3.66,5.92,6.49.54,1.27.89,2.68,1.05,4.25.16,1.56.24,3.15.24,4.77v27.13h-5.3v-10.96l1.54.65c-1.48,3.75-3.79,6.6-6.91,8.57-3.13,1.97-6.87,2.95-11.24,2.95ZM287.11,85.19c2.78,0,5.2-.5,7.28-1.5,2.08-1,3.75-2.37,5.01-4.1,1.27-1.74,2.09-3.7,2.47-5.88.32-1.4.5-2.94.53-4.63.03-1.68.04-2.94.04-3.78l2.26,1.17c-2.02.27-4.21.54-6.57.81-2.36.27-4.68.58-6.95.93-2.28.35-4.33.77-6.17,1.25-1.24.35-2.44.84-3.6,1.48-1.16.63-2.11,1.48-2.85,2.53-.74,1.05-1.11,2.36-1.11,3.92,0,1.27.32,2.49.95,3.68.63,1.19,1.66,2.17,3.07,2.95,1.42.78,3.3,1.17,5.64,1.17Z"/>
    <path class="cls-1" d="M314,89.11l17.06-22.08-16.7-21.59h7.12l13.06,17.02,12.94-17.02h7.12l-16.7,21.59,17.1,22.08h-7.16l-13.3-17.51-13.38,17.51h-7.16Z"/>
  </g>
  <g>
    <path class="cls-1" d="M100.63,73.55c0,7.33-.49,12.02-1.66,20.39l-.03.23-6.6,4.35.76-5.38c1.13-8.1,1.59-12.61,1.59-19.58,0-22.09-15.73-40.73-36.59-43.34-1.63-.21-3.31-.32-4.99-.32h-.53c-1.85,0-3.67.12-5.42.37-20.66,2.78-36.22,21.4-36.22,43.29,0,6.97.48,11.47,1.6,19.58l.74,5.38-6.6-4.35-.03-.23c-1.17-8.39-1.66-13.06-1.66-20.39,0-24.84,17.78-45.99,41.36-49.17,2.01-.28,4.09-.42,6.16-.42.11,0,.21,0,.32.01.05-.01.16-.01.27-.01,1.93,0,3.86.13,5.74.37,23.82,2.98,41.79,24.14,41.79,49.22Z"/>
    <path class="cls-1" d="M83.44,64.81c-.2,6.72-5.71,12.1-12.48,12.1-2.42,0-4.69-.69-6.61-1.89.21-6.72,5.74-12.08,12.49-12.08,2.42,0,4.69.69,6.6,1.88Z"/>
    <path class="cls-1" d="M22.37,64.81c.2,6.72,5.71,12.1,12.48,12.1,2.42,0,4.69-.69,6.61-1.89-.21-6.72-5.74-12.08-12.49-12.08-2.42,0-4.69.69-6.6,1.88Z"/>
    <g class="cls-2">
      <polygon class="cls-3" points="86.43 13.73 53.07 106.27 18.74 13.73 26.14 13.73 52.98 86.53 79.06 13.73 86.43 13.73"/>
    </g>
  </g>
</svg>
