<svg class="vallax-logo-svg" version="1.1" viewBox="0 0 100 100" xmlns="http://www.w3.org/2000/svg">
 <defs>
  <linearGradient id="linearGradient6" x1="5" x2="95" y1="50" y2="50" gradientUnits="userSpaceOnUse">
   <stop stop-color="#d0d9e4" offset="0"/>
  </linearGradient>
  <filter id="filter2" x="-.12445" y="-.12445" width="1.2489" height="1.2489" color-interpolation-filters="sRGB">
   <feFlood flood-color="rgb(0,207,232)" flood-opacity=".4" in="SourceGraphic" result="flood"/>
   <feGaussianBlur in="SourceGraphic" result="blur" stdDeviation="3.000000"/>
   <feOffset dx="0.000000" dy="0.000000" in="blur" result="offset"/>
   <feComposite in="offset" in2="flood" operator="in" result="comp1"/>
   <feComposite in="SourceGraphic" in2="comp1" result="comp2"/>
  </filter>
  <filter id="filter4" x="-.18851" y="-.20466" width="1.377" height="1.4093" color-interpolation-filters="sRGB">
   <feFlood flood-color="rgb(0,207,232)" flood-opacity=".4" in="SourceGraphic" result="flood"/>
   <feGaussianBlur in="SourceGraphic" result="blur" stdDeviation="3.000000"/>
   <feOffset dx="0.000000" dy="0.000000" in="blur" result="offset"/>
   <feComposite in="offset" in2="flood" operator="in" result="comp1"/>
   <feComposite in="SourceGraphic" in2="comp1" result="comp2"/>
  </filter>
 </defs>
 <rect width="100" height="100" fill="#0d1117" stroke-width="8.0013"/>
 <path transform="matrix(1.0962 0 0 1.0962 -3.0566 -6.2058)" d="m51.922 70.13v-17.63a1.763 1.763 0 0 1 1.763-1.763h7.0519a1.763 1.763 0 0 1 1.763 1.763v17.63m-10.578 0h-26.186m26.186 0h10.578m0 0h8.5563m-3.2674 0v-27.387m-38.785 27.387v-27.387m0 0a7.0542 7.0542 0 0 0 8.8148-1.4456 7.0354 7.0354 0 0 0 5.2889 2.3882c2.1062 0 3.9961-0.9238 5.2889-2.3882a7.0354 7.0354 0 0 0 5.2889 2.3882c2.1062 0 3.9961-0.9238 5.2889-2.3859a7.0542 7.0542 0 0 0 8.8148 1.4433m-38.785 0a7.0613 7.0613 0 0 1-1.4597-11.095l2.7949-2.7972a3.5259 3.5259 0 0 1 2.4917-1.0319h31.129a3.5259 3.5259 0 0 1 2.4917 1.0343l2.7972 2.7949a7.0519 7.0519 0 0 1-1.4597 11.095m-31.733 20.335h8.8148a1.763 1.763 0 0 0 1.763-1.763v-8.8148a1.763 1.763 0 0 0-1.763-1.763h-8.8148a1.763 1.763 0 0 0-1.763 1.763v8.8148c0 0.97316 0.78981 1.763 1.763 1.763z" fill="none" filter="url(#filter4)" stop-color="#000000" stroke="#00cfe8" stroke-linecap="round" stroke-width="2.9191" style="font-variation-settings:normal;paint-order:normal"/>
 <circle class="logo-circle-stroke" cx="50" cy="50" r="45" fill="none" filter="url(#filter2)" stroke="url(#linearGradient6)" stroke-width="8.0013"/>
</svg>
