<svg class="vallax-logo-svg" version="1.1" viewBox="0 0 100 100" xmlns="http://www.w3.org/2000/svg">
 <defs>
  <linearGradient id="linearGradient4" x1="25" x2="75" y1="52.5" y2="52.5" gradientTransform="translate(1.0241 -.23904)" gradientUnits="userSpaceOnUse">
   <stop stop-color="#00cfe8" offset="0"/>
  </linearGradient>
  <linearGradient id="linearGradient6" x1="5" x2="95" y1="50" y2="50" gradientUnits="userSpaceOnUse">
   <stop stop-color="#d0d9e4" offset="0"/>
  </linearGradient>
  <filter id="filter2" x="-.12445" y="-.12445" width="1.2489" height="1.2489" color-interpolation-filters="sRGB">
   <feFlood flood-color="rgb(0,207,232)" flood-opacity=".4" in="SourceGraphic" result="flood"/>
   <feGaussianBlur in="SourceGraphic" result="blur" stdDeviation="3.000000"/>
   <feOffset dx="0.000000" dy="0.000000" in="blur" result="offset"/>
   <feComposite in="offset" in2="flood" operator="in" result="comp1"/>
   <feComposite in="SourceGraphic" in2="comp1" result="comp2"/>
  </filter>
  <filter id="filter4" x="-.16159" y="-.14926" width="1.3232" height="1.2985" color-interpolation-filters="sRGB">
   <feFlood flood-color="rgb(0,207,232)" flood-opacity=".4" in="SourceGraphic" result="flood"/>
   <feGaussianBlur in="SourceGraphic" result="blur" stdDeviation="3.000000"/>
   <feOffset dx="0.000000" dy="0.000000" in="blur" result="offset"/>
   <feComposite in="offset" in2="flood" operator="in" result="comp1"/>
   <feComposite in="SourceGraphic" in2="comp1" result="comp2"/>
  </filter>
 </defs>
 <rect width="100" height="100" fill="#0d1117" stroke-width="8.0013"/>
 <path d="m57.66 63.624a63.924 63.924 0 0 0 14.619-3.5114 24.036 24.036 0 0 1-6.1946-16.142v-2.0104a16.083 16.083 0 0 0-32.166 0v2.0104a24.036 24.036 0 0 1-6.1973 16.142c4.6453 1.7155 9.5425 2.9083 14.622 3.5114m15.316 0a65.015 65.015 0 0 1-15.316 0m15.316 0a8.0415 8.0415 0 1 1-15.316 0" fill="url(#linearGradient4)" filter="url(#filter4)" stop-color="#000000" style="-inkscape-stroke:none;font-variation-settings:normal"/>
 <circle class="logo-circle-stroke" cx="50" cy="50" r="45" fill="none" filter="url(#filter2)" stroke="url(#linearGradient6)" stroke-width="8.0013"/>
</svg>
